<?xml version="1.0" standalone="no"?>
<!DOCTYPE svg PUBLIC "-//W3C//DTD SVG 20010904//EN"
 "http://www.w3.org/TR/2001/REC-SVG-20010904/DTD/svg10.dtd">
<svg version="1.0" xmlns="http://www.w3.org/2000/svg"
 width="1280.000000pt" height="841.000000pt" viewBox="0 0 1280.000000 841.000000"
 preserveAspectRatio="xMidYMid meet">
<metadata>
Created by potrace 1.15, written by Peter Selinger 2001-2017
</metadata>
<g transform="translate(0.000000,841.000000) scale(0.100000,-0.100000)"
fill="#ff9800" stroke="none">
<path d="M9444 8392 c-49 -23 -97 -86 -126 -164 -19 -54 -24 -59 -82 -86 -108
-51 -171 -120 -250 -277 -41 -82 -48 -90 -83 -100 -36 -10 -38 -13 -44 -61
-10 -76 -16 -89 -57 -107 -27 -12 -47 -32 -72 -74 -49 -84 -69 -104 -91 -93
-32 18 -47 11 -54 -22 -4 -18 -28 -82 -52 -143 -31 -74 -47 -130 -51 -171 l-5
-62 -38 -6 c-21 -3 -40 -10 -43 -14 -4 -7 15 -222 29 -319 l6 -43 -78 0 c-77
-1 -78 -1 -98 -33 -18 -28 -27 -33 -75 -37 l-55 -5 -42 -65 c-30 -46 -54 -70
-80 -82 -33 -14 -42 -27 -66 -87 -34 -81 -84 -144 -138 -171 -59 -31 -69 -27
-69 25 0 30 -5 47 -16 53 -28 16 -113 104 -119 123 -4 11 -15 19 -26 19 -27 0
-60 18 -80 42 -15 19 -13 25 33 102 84 141 113 251 95 365 -29 196 -232 318
-554 333 -29 2 -53 5 -53 8 0 3 42 32 94 63 51 32 111 77 133 100 31 34 53 46
102 60 34 10 93 32 129 51 50 24 74 31 92 25 33 -9 199 -9 275 0 56 8 62 6 91
-19 41 -35 97 -56 209 -79 98 -19 105 -17 105 35 0 20 -12 46 -35 76 -34 43
-39 46 -118 62 -261 51 -525 46 -777 -16 -69 -17 -94 -29 -142 -67 -31 -25
-105 -75 -164 -110 -59 -36 -133 -86 -165 -113 l-57 -47 -83 24 c-45 14 -97
25 -116 25 -32 0 -33 1 -33 41 l0 40 -52 -3 c-52 -3 -52 -4 -61 -41 -13 -55
-113 -144 -124 -111 -25 74 -81 113 -106 73 -18 -29 -34 -23 -56 19 -31 62
-93 108 -234 178 -72 35 -149 79 -171 96 -40 32 -141 57 -236 58 -25 0 -74 10
-110 21 -57 18 -87 20 -245 18 -171 -2 -188 -4 -345 -42 -166 -40 -259 -77
-294 -116 -19 -21 -19 -21 0 -21 10 0 37 -11 59 -23 40 -23 40 -23 82 -5 23
10 89 23 149 29 67 6 125 18 156 31 45 19 53 20 74 7 19 -12 45 -13 136 -6 74
5 152 5 223 -3 185 -19 280 -55 374 -145 31 -28 93 -72 139 -96 l82 -44 -117
-11 c-220 -21 -353 -72 -442 -170 -77 -84 -95 -154 -88 -333 8 -201 39 -281
125 -325 57 -29 99 -62 90 -71 -3 -4 -20 1 -37 9 -43 23 -60 20 -71 -11 -18
-50 -27 -58 -71 -63 -36 -4 -44 -9 -49 -30 -8 -35 -41 -37 -79 -4 -24 20 -39
25 -60 21 -25 -5 -31 -2 -41 23 -19 47 -43 62 -90 58 l-42 -3 -47 82 c-25 45
-51 83 -57 83 -6 0 -19 -9 -29 -20 -23 -25 -31 -25 -38 0 -8 29 -52 46 -86 33
-27 -10 -30 -8 -71 51 -23 33 -62 90 -86 125 -25 35 -52 90 -61 122 -12 45
-21 59 -37 61 -17 2 -22 11 -24 43 -1 22 -9 93 -17 157 -9 64 -13 127 -10 140
5 19 1 27 -20 36 -14 6 -29 22 -34 34 -5 13 -15 38 -21 56 -15 38 -41 42 -63
10 -15 -21 -16 -13 -16 119 l-1 141 -45 22 c-42 20 -78 54 -88 83 -3 8 -10 7
-24 -5 -19 -17 -19 -16 -31 40 -18 85 -74 171 -201 306 -122 130 -203 237
-221 292 -11 33 -13 34 -65 34 -75 0 -85 -6 -85 -49 0 -28 9 -48 36 -79 53
-63 44 -72 -70 -72 -54 0 -98 -4 -101 -10 -4 -6 -1 -26 5 -46 16 -48 56 -64
158 -64 102 0 133 -12 177 -66 35 -42 39 -44 89 -44 l53 0 49 -112 c40 -92 49
-123 49 -170 -1 -31 2 -55 6 -52 12 7 39 -8 50 -27 9 -18 7 -19 -30 -13 l-39
6 -10 -53 c-6 -30 -14 -73 -17 -96 -4 -23 -15 -58 -25 -79 l-19 -36 38 -57
c35 -51 38 -62 34 -103 -4 -37 -1 -54 17 -83 18 -30 22 -46 17 -85 -5 -42 -3
-50 16 -63 17 -11 21 -22 19 -56 -3 -39 1 -46 58 -105 35 -37 60 -71 60 -84 0
-23 14 -29 25 -12 13 21 25 -3 19 -39 l-6 -37 86 -44 c47 -24 88 -50 92 -59 4
-9 10 -59 13 -110 l6 -95 89 -51 c49 -28 107 -71 130 -96 l41 -44 -27 -3 c-53
-6 -475 187 -1168 535 -417 210 -590 290 -835 388 -328 132 -637 223 -962 284
-132 25 -172 37 -243 73 -86 44 -206 79 -335 99 -38 6 -219 13 -402 16 -316 5
-336 4 -401 -16 -115 -34 -225 -120 -272 -210 -12 -24 -9 -83 11 -191 46 -245
203 -526 424 -760 55 -58 135 -148 177 -200 250 -309 315 -385 410 -475 57
-56 139 -124 182 -153 114 -76 180 -106 442 -202 71 -26 214 -43 309 -35 44 3
166 17 270 31 359 47 513 41 623 -22 26 -14 76 -34 112 -44 36 -10 103 -32
150 -49 47 -17 98 -31 113 -31 15 0 41 -7 56 -15 16 -8 71 -22 122 -31 52 -9
100 -20 106 -23 7 -4 -99 -28 -235 -55 -291 -57 -484 -104 -604 -145 -190 -65
-341 -161 -440 -279 -44 -53 -48 -61 -48 -112 -1 -178 143 -434 288 -513 103
-56 151 -62 559 -62 204 0 374 -3 378 -7 14 -14 -19 -51 -84 -92 -104 -67
-137 -121 -90 -147 12 -6 37 -9 55 -6 52 9 50 -10 -5 -60 -43 -39 -50 -50 -44
-72 8 -36 22 -51 47 -51 11 0 27 -4 35 -9 21 -14 -42 -130 -157 -288 -90 -124
-99 -133 -130 -133 -45 0 -137 -34 -179 -65 -42 -33 -100 -119 -109 -161 -5
-26 -1 -35 26 -58 32 -26 33 -26 59 -9 90 60 166 78 206 49 15 -11 19 -24 16
-56 -5 -75 30 -120 93 -120 41 0 51 46 48 214 l-3 150 32 65 c25 51 64 98 172
208 78 79 148 143 158 143 10 0 35 -11 55 -25 41 -28 46 -27 113 31 45 39 91
121 91 163 0 13 11 37 25 53 55 65 90 174 83 261 l-3 42 165 27 c91 15 226 37
300 49 l135 23 75 75 c42 42 132 150 200 241 68 91 159 199 201 240 76 75 201
159 207 140 2 -5 16 -10 31 -10 37 0 43 -8 26 -34 -8 -11 -15 -33 -15 -48 0
-27 2 -28 48 -28 57 0 69 -8 42 -27 -22 -16 -28 -71 -7 -78 6 -2 29 -6 49 -10
48 -8 112 -57 155 -119 l34 -50 -26 -20 c-15 -13 -37 -51 -53 -96 l-28 -75
-44 -3 c-81 -4 -90 -9 -90 -45 1 -17 7 -43 15 -57 29 -51 16 -110 -24 -110
-47 0 -126 -29 -150 -54 -22 -24 -24 -42 -10 -96 8 -30 -57 -24 -117 11 -55
31 -57 31 -85 15 -26 -16 -42 -16 -101 0 -12 4 -23 -6 -35 -32 -16 -32 -23
-37 -57 -40 -79 -7 -152 -100 -144 -184 3 -35 1 -39 -29 -49 -17 -7 -44 -26
-60 -44 -21 -25 -54 -42 -132 -69 -56 -20 -128 -52 -159 -70 -59 -35 -172
-140 -172 -160 0 -6 9 -21 20 -33 l21 -22 -57 -37 -56 -38 4 -50 c5 -49 4 -52
-38 -93 -24 -23 -44 -47 -44 -54 0 -21 57 -71 81 -71 l23 0 -26 -27 c-32 -34
-42 -71 -34 -118 5 -26 12 -35 27 -35 11 0 29 -5 40 -11 19 -10 19 -10 -1 -36
-35 -45 -24 -73 33 -87 48 -11 28 -37 -90 -116 -62 -41 -127 -88 -144 -105
-34 -33 -79 -118 -79 -151 0 -21 35 -44 65 -44 27 0 14 -15 -67 -75 -44 -33
-87 -73 -97 -88 -16 -28 -16 -29 22 -59 20 -16 37 -35 37 -41 0 -6 -12 -28
-26 -49 -23 -33 -25 -41 -15 -69 18 -51 13 -79 -25 -158 -62 -127 -57 -165 20
-176 37 -6 44 -11 52 -38 7 -24 20 -37 51 -52 l42 -20 1 -58 c0 -56 1 -58 35
-74 19 -9 35 -19 35 -22 4 -205 18 -270 84 -385 l33 -58 -28 -82 c-29 -84 -49
-185 -49 -246 0 -35 1 -35 74 -58 40 -13 86 -22 102 -20 l29 3 5 102 c3 56 8
104 11 108 4 3 38 -11 77 -31 49 -25 89 -39 126 -42 69 -6 96 1 135 34 25 21
30 31 25 52 -19 79 -54 107 -184 147 -111 35 -156 65 -180 119 -10 24 -30 51
-44 62 -33 24 -57 89 -63 176 l-6 67 54 3 54 3 5 40 5 40 46 -3 c46 -4 47 -3
68 40 11 25 21 63 21 85 0 39 2 41 35 47 55 11 68 40 76 177 4 65 12 126 18
136 8 14 23 18 73 18 l63 0 3 51 c2 29 -4 82 -13 119 -15 65 -15 69 3 89 35
39 34 45 -21 154 -57 111 -107 229 -125 296 l-11 39 22 -20 c57 -52 92 -55
107 -9 11 35 26 46 60 46 17 0 20 9 22 73 l3 72 44 11 c56 13 60 25 64 163 2
85 -1 112 -15 138 -17 31 -17 33 2 65 13 23 22 68 30 148 13 131 36 192 81
216 28 14 32 13 56 -6 28 -22 76 -26 119 -10 15 6 28 9 31 7 2 -2 -11 -62 -28
-133 -38 -155 -37 -248 1 -326 23 -46 23 -48 5 -61 -17 -13 -18 -25 -12 -153
13 -298 66 -457 177 -530 38 -25 48 -27 192 -31 296 -9 293 -9 312 10 10 9 23
17 31 17 7 0 23 9 36 20 l24 20 -29 25 c-32 30 -33 28 17 48 29 13 37 21 37
42 0 18 -7 28 -24 35 -33 12 -40 27 -16 33 24 6 25 21 5 77 -8 23 -15 62 -15
85 0 26 -6 47 -16 55 -9 8 -61 17 -123 21 -97 7 -192 31 -191 48 0 3 12 18 25
34 21 24 31 27 84 27 67 0 142 25 202 68 41 28 48 42 25 42 -8 0 -27 5 -41 10
-26 10 -27 11 -11 35 18 28 18 29 -31 93 -18 24 -33 48 -33 53 0 5 27 9 60 9
70 0 84 15 74 80 -6 38 -4 44 32 81 21 21 41 39 45 39 3 0 9 -19 13 -42 9 -53
21 -68 58 -68 21 0 43 13 82 50 55 52 80 61 90 34 9 -24 9 -24 -28 -24 -39 0
-46 -11 -35 -58 9 -43 11 -45 60 -51 l42 -6 0 -58 c0 -52 -3 -60 -24 -71 -51
-25 -25 -106 53 -164 l48 -36 -26 -27 c-67 -70 0 -103 249 -121 108 -8 151
-14 131 -19 -46 -12 -241 -29 -271 -24 -16 2 -54 7 -85 10 -57 5 -58 5 -58
-21 0 -18 -13 -38 -40 -63 -51 -46 -56 -81 -15 -93 17 -5 42 -6 58 -4 30 6 33
0 12 -28 -19 -26 -18 -82 4 -181 l17 -80 64 -16 c40 -11 70 -25 80 -40 15 -19
23 -21 61 -15 24 4 64 16 89 27 40 18 65 20 235 19 437 -2 736 46 947 151 l77
38 26 -30 c33 -39 33 -69 1 -69 -28 0 -42 -14 -51 -53 -7 -25 -10 -27 -64 -27
-35 0 -85 -10 -127 -24 -254 -89 -611 -122 -1029 -97 -156 10 -210 17 -244 32
-107 47 -137 13 -101 -113 12 -43 20 -91 18 -107 -4 -26 0 -32 24 -41 15 -5
42 -15 58 -21 35 -13 38 -34 9 -68 -18 -22 -23 -24 -53 -13 -18 7 -46 12 -63
12 -33 0 -43 -17 -43 -72 0 -23 6 -29 40 -39 35 -11 40 -16 40 -41 0 -60 12
-68 103 -68 56 0 122 -10 207 -30 166 -39 251 -39 446 0 82 17 189 33 239 37
75 5 103 13 173 45 85 39 184 68 236 68 39 0 86 38 131 105 78 118 115 259
115 438 0 107 1 115 24 136 34 32 74 128 91 217 15 78 20 376 6 423 -4 17 -19
28 -46 38 -51 17 -65 37 -65 90 0 43 7 52 26 33 15 -15 91 -17 106 -2 18 18
14 99 -10 176 -23 70 -28 131 -13 140 4 3 23 -6 41 -19 44 -33 86 -33 94 -2 3
13 21 32 42 43 51 26 61 58 29 88 -30 28 -33 41 -5 26 14 -7 33 -7 65 1 52 13
53 13 56 -21 5 -57 -2 -92 -23 -113 -23 -23 -23 -27 -22 -267 1 -259 7 -306
48 -389 30 -58 51 -78 59 -57 3 8 19 22 36 30 l29 16 7 -39 c6 -37 8 -39 57
-47 l50 -9 29 -73 c16 -40 27 -77 25 -81 -3 -4 8 -15 25 -25 16 -9 29 -21 29
-25 0 -22 -36 -106 -99 -230 -38 -75 -76 -160 -84 -188 l-16 -53 26 -20 c14
-11 36 -20 50 -20 37 0 39 -26 6 -106 -30 -73 -30 -73 -11 -91 11 -10 38 -48
60 -85 22 -38 44 -68 49 -68 6 0 5 -8 -1 -19 -20 -38 -11 -87 23 -138 26 -38
32 -57 29 -84 -3 -27 4 -45 31 -84 53 -78 67 -111 67 -160 0 -40 3 -47 26 -55
14 -6 38 -10 54 -10 30 0 47 -14 30 -25 -20 -13 -40 -78 -50 -169 -12 -96 -35
-191 -49 -200 -4 -3 -21 -2 -37 3 -16 4 -39 5 -51 0 -34 -13 -79 -88 -117
-199 -34 -95 -35 -105 -21 -126 16 -24 81 -43 94 -28 4 5 13 27 20 49 30 90
87 135 169 135 49 0 49 0 56 -38 3 -20 6 -67 6 -105 0 -65 1 -68 33 -87 44
-27 73 -25 93 5 14 22 16 43 10 148 -7 108 -10 125 -30 147 -47 51 -58 135
-31 246 13 57 62 174 72 174 2 0 17 -7 32 -14 41 -22 69 -10 81 33 42 158 51
257 29 321 -13 36 0 54 34 46 13 -3 17 2 17 25 0 23 6 32 27 40 91 34 100 118
33 285 -16 42 -30 78 -30 80 0 3 10 5 23 4 57 -5 67 -1 67 28 0 15 -11 44 -25
63 l-26 34 46 3 c30 2 48 9 52 18 10 27 -16 90 -61 152 -59 80 -76 114 -76
155 0 28 -7 39 -37 60 -21 15 -69 60 -106 102 -38 41 -86 84 -107 95 -36 18
-39 23 -47 82 l-8 63 33 6 c45 8 48 13 34 64 -18 68 -18 69 39 62 51 -6 89 4
89 24 0 6 -23 36 -50 66 -28 30 -85 108 -127 172 -43 64 -95 140 -117 169
l-39 53 22 20 c33 31 26 55 -29 96 -49 37 -50 38 -50 93 0 105 -38 139 -243
214 -81 30 -163 65 -182 77 -33 23 -35 27 -35 80 0 45 -4 59 -22 76 -30 27
-66 45 -77 39 -5 -3 -9 13 -9 36 -1 51 -14 60 -74 55 -41 -3 -48 -1 -48 14 0
23 -29 39 -72 39 -22 0 -52 -13 -92 -40 -35 -24 -70 -40 -87 -40 -26 0 -29 -4
-29 -31 0 -24 -4 -30 -17 -27 -22 4 -29 48 -13 78 15 28 5 40 -90 103 -74 49
-150 114 -150 129 0 4 26 8 58 10 54 3 57 4 60 31 3 24 -6 37 -53 80 -40 38
-57 61 -59 82 -2 24 -11 34 -44 50 -65 32 -67 38 -33 73 23 23 31 40 31 67 0
20 4 34 9 30 6 -3 28 -2 51 1 l41 7 -6 38 -7 38 30 -11 c16 -6 37 -8 47 -4 15
5 17 14 11 66 -6 53 -5 60 10 60 9 0 45 29 79 65 35 36 68 65 75 65 12 0 135
-122 555 -551 152 -156 236 -233 305 -282 109 -76 243 -146 345 -180 l70 -24
6 -64 c4 -36 16 -97 28 -136 19 -64 24 -71 51 -77 22 -4 34 -15 47 -43 25 -55
43 -73 72 -73 14 0 45 -7 68 -16 35 -14 49 -15 70 -5 14 6 27 10 28 9 2 -2 25
-48 53 -103 27 -55 79 -151 115 -213 l65 -114 -20 -71 c-11 -40 -30 -97 -42
-128 l-22 -56 23 -21 c31 -27 30 -44 -2 -36 -32 8 -33 -9 0 -41 25 -26 70 -31
125 -16 25 7 25 8 25 118 0 62 5 116 10 122 7 7 43 -6 112 -39 l101 -50 31 31
c17 17 31 35 31 40 0 18 -56 92 -106 142 -54 53 -97 79 -161 96 -38 10 -43 16
-54 54 -6 23 -39 116 -74 207 -86 227 -83 206 -36 214 94 15 108 130 26 212
-14 14 -25 27 -23 28 2 2 37 8 78 15 197 33 436 103 784 232 189 71 199 76
216 110 10 19 37 52 59 72 33 30 42 46 52 97 26 132 -10 265 -101 378 -58 72
-222 207 -288 237 -81 37 -223 79 -426 125 -99 23 -222 55 -274 72 l-95 30
-16 -20 c-16 -21 -16 -21 -33 3 l-18 23 68 7 c114 11 211 25 367 55 l150 29
56 54 c72 70 254 170 280 154 9 -6 15 -15 13 -21 -5 -14 257 -142 321 -157 79
-19 334 -15 445 6 195 36 383 114 517 213 80 59 136 122 270 302 40 52 106
133 148 180 96 107 196 239 268 355 31 50 74 104 96 122 28 23 46 51 64 99 15
36 53 112 86 168 33 55 70 123 81 149 49 110 33 221 -50 366 -51 89 -60 98
-163 140 -174 73 -519 73 -907 0 -194 -37 -343 -80 -767 -220 -232 -76 -427
-139 -434 -139 -20 0 -121 -47 -499 -230 -456 -222 -651 -305 -865 -370 -67
-20 -173 -64 -675 -280 -224 -97 -455 -183 -472 -178 -5 2 0 16 12 31 15 18
31 27 51 27 19 0 42 12 66 33 39 35 213 153 295 201 35 21 58 27 87 24 39 -3
39 -3 95 82 42 63 56 93 56 120 0 57 38 120 104 170 134 103 162 128 184 160
23 34 29 84 12 95 -16 10 -12 47 10 82 11 18 47 67 80 109 81 102 103 145 90
179 -14 38 -12 118 5 208 8 43 15 108 15 143 l0 64 -30 0 c-27 0 -30 3 -30 30
0 44 35 130 72 174 42 51 222 194 273 217 48 22 94 24 138 5 27 -11 34 -11 45
0 8 9 36 14 77 14 54 0 66 3 75 20 6 12 8 30 5 40 -10 32 -41 42 -105 35 -54
-6 -58 -5 -79 21 -28 36 -27 51 10 82 61 51 69 62 69 91 0 37 -8 42 -78 47
-42 4 -68 0 -98 -14z m-8545 -1023 c19 -14 60 -25 127 -35 132 -19 154 -29
154 -65 0 -34 -3 -33 45 -13 42 17 73 14 170 -16 33 -10 72 -21 87 -24 24 -6
26 -9 16 -25 -6 -10 -8 -26 -5 -35 10 -26 37 -18 48 14 9 26 15 29 37 24 252
-59 829 -233 860 -260 12 -9 47 -28 78 -41 32 -13 65 -29 73 -37 9 -8 70 -35
136 -61 285 -112 512 -234 1050 -565 228 -140 340 -202 390 -218 39 -13 95
-38 126 -57 47 -29 110 -48 350 -109 401 -101 373 -90 379 -151 3 -28 9 -56
13 -62 6 -10 -8 -13 -60 -13 -75 0 -179 26 -338 84 -152 56 -232 74 -449 102
-110 14 -238 37 -285 50 -76 22 -90 24 -134 13 -59 -14 -129 -8 -252 22 -49
12 -121 24 -160 28 l-70 6 3 36 c1 20 -3 41 -10 47 -24 19 -83 17 -114 -3 -22
-16 -47 -20 -109 -21 -56 -1 -99 -8 -145 -24 -47 -16 -94 -24 -170 -27 -117
-5 -108 -8 -245 82 -42 28 -129 84 -193 126 -74 48 -141 101 -180 143 -58 63
-62 69 -62 115 0 42 -4 53 -30 74 -51 43 -120 44 -120 3 0 -7 28 -55 62 -107
106 -162 283 -322 480 -434 62 -36 67 -41 71 -79 2 -23 8 -51 12 -63 6 -17 3
-23 -8 -23 -10 0 -20 -15 -27 -41 -8 -29 -15 -39 -26 -35 -8 3 -83 48 -167 99
-275 170 -621 356 -635 342 -4 -3 0 -18 8 -33 10 -18 46 -43 105 -72 50 -25
182 -106 295 -181 113 -75 251 -163 307 -198 72 -44 103 -69 107 -86 4 -14 20
-41 37 -60 18 -20 30 -37 28 -39 -6 -5 -490 -54 -599 -61 -178 -11 -377 23
-499 84 -226 115 -410 289 -776 736 -77 94 -167 199 -201 235 -34 36 -76 93
-93 129 -17 35 -67 114 -110 175 -43 61 -92 138 -109 171 -102 198 -42 338
168 393 36 9 134 16 284 19 213 5 229 7 233 24 7 24 8 24 42 -2z m11448 -110
c130 -18 238 -85 314 -196 32 -46 36 -81 18 -165 -17 -79 -49 -143 -134 -272
-60 -90 -81 -116 -94 -110 -38 16 -51 16 -57 0 -4 -9 1 -25 10 -35 9 -10 16
-21 16 -25 0 -15 -84 -152 -144 -236 -230 -322 -554 -685 -662 -742 -54 -29
-230 -82 -392 -119 -128 -29 -345 -32 -442 -5 -127 34 -250 109 -271 163 -13
36 11 75 105 166 108 105 213 183 332 247 55 29 135 76 179 105 56 37 94 55
128 60 32 4 59 16 79 34 27 24 29 30 19 49 -6 12 -18 22 -26 22 -26 0 -197
-80 -304 -143 -133 -77 -286 -192 -516 -388 -217 -184 -356 -295 -433 -347
-51 -35 -66 -40 -138 -45 -44 -3 -92 -10 -106 -16 l-25 -9 0 96 c1 91 -2 106
-47 235 l-48 138 23 25 c35 37 171 99 269 123 70 17 301 51 347 51 6 0 14 9
18 19 4 15 33 28 107 51 262 81 427 198 507 358 21 41 23 42 72 42 56 0 101
-16 172 -62 40 -26 50 -29 58 -17 25 40 -11 76 -122 119 -102 39 -151 64 -168
83 -10 13 -15 12 -36 -9 -13 -13 -37 -24 -52 -25 -15 -1 -66 -2 -113 -3 -47
-1 -96 -6 -110 -10 l-25 -9 23 25 c29 31 28 49 -4 87 l-25 30 46 46 c91 91
256 141 333 101 l32 -16 13 32 c8 18 21 39 31 47 14 12 20 11 39 -8 13 -11 35
-21 50 -21 23 0 27 4 27 29 0 24 5 30 28 35 89 19 359 61 637 101 176 25 338
50 360 55 58 14 102 12 136 -6 l30 -15 -3 27 c-2 19 -14 34 -37 48 -48 28
-182 33 -276 11 l-70 -16 -20 26 c-13 16 -31 25 -48 25 -25 0 -27 -3 -27 -38
l0 -38 -237 -38 c-670 -107 -864 -145 -898 -176 -11 -10 -53 -34 -93 -54 -84
-42 -147 -95 -156 -132 -7 -28 8 -59 52 -106 14 -15 22 -31 19 -35 -4 -4 -51
-10 -105 -14 -114 -9 -105 -7 -98 -18 3 -5 25 -4 52 1 25 6 48 7 52 3 13 -13
-25 -25 -80 -25 -31 0 -64 -3 -74 -7 -12 -4 -15 -2 -12 8 6 17 -18 80 -34 90
-6 4 -22 2 -35 -4 -22 -10 -22 -12 -8 -33 8 -13 11 -25 7 -28 -17 -10 -131
-26 -190 -26 l-64 0 6 33 c3 17 22 63 41 100 19 37 35 74 35 82 0 44 474 232
884 351 104 30 227 69 275 85 311 109 590 166 627 129 7 -7 42 -2 109 16 83
22 167 36 247 43 9 0 52 -4 95 -10z m-2398 -780 c-46 -137 -110 -283 -191
-432 -118 -220 -98 -200 -229 -225 -180 -35 -291 -50 -659 -87 -190 -20 -405
-45 -477 -56 -99 -15 -138 -17 -153 -9 -11 6 -20 15 -20 19 0 17 -34 22 -42 6
-14 -24 -58 -42 -123 -50 -33 -4 -58 -5 -55 -2 3 2 91 45 195 94 200 95 282
128 405 164 45 13 87 33 105 49 17 15 60 44 97 64 37 21 70 42 74 47 10 16 23
10 26 -13 2 -15 10 -23 23 -23 17 0 20 8 23 50 2 27 8 55 13 62 6 6 41 22 77
34 172 56 636 255 858 367 43 22 80 39 81 38 2 -2 -11 -45 -28 -97z m-3146 2
c108 -22 256 -69 312 -100 18 -10 54 -16 90 -16 52 0 73 -7 154 -48 51 -26
105 -47 118 -47 23 0 24 -2 18 -39 -5 -33 -3 -41 14 -50 11 -6 31 -11 45 -11
22 0 25 -5 28 -42 3 -43 3 -43 45 -46 40 -3 42 -5 37 -30 -8 -37 26 -78 77
-93 36 -11 48 -27 32 -42 -3 -4 -16 -1 -29 8 l-22 14 13 -50 c8 -28 19 -56 25
-64 19 -22 -25 -38 -120 -43 -69 -3 -95 0 -139 16 -66 26 -92 16 -84 -32 2
-17 -2 -60 -11 -95 -13 -56 -13 -68 0 -99 13 -32 13 -37 -2 -53 -18 -20 -20
-41 -10 -123 7 -51 6 -56 -12 -56 -36 0 -45 -26 -43 -117 2 -100 -5 -92 126
-159 50 -26 105 -57 122 -71 31 -23 32 -26 29 -81 -4 -50 -7 -57 -30 -65 -22
-7 -26 -15 -26 -48 0 -50 -19 -51 -45 -1 -25 47 -61 56 -71 17 -5 -19 1 -42
20 -78 l27 -52 -33 -7 c-18 -3 -43 -9 -54 -13 -19 -6 -24 -1 -38 43 -19 56
-38 77 -61 68 -20 -7 -19 -64 1 -116 16 -40 18 -41 58 -38 35 2 41 0 41 -17 0
-13 -14 -27 -40 -41 -32 -16 -41 -27 -45 -54 -4 -27 -11 -35 -35 -42 -16 -5
-47 -6 -67 -3 -43 6 -51 -8 -47 -78 2 -23 -1 -44 -7 -46 -5 -2 -38 1 -74 7
-141 23 -160 24 -154 8 9 -23 58 -36 96 -25 18 5 34 9 35 9 5 0 14 -82 9 -87
-3 -3 -22 9 -42 26 -42 37 -83 39 -98 5 -7 -16 -21 -23 -55 -27 -25 -3 -47 -4
-49 -2 -8 7 30 65 48 75 25 13 26 56 3 105 -18 37 -47 46 -72 23 -10 -11 -16
-9 -28 10 -21 30 -60 28 -95 -4 l-27 -27 -12 27 c-9 18 -20 26 -37 26 -28 0
-62 -26 -62 -47 0 -20 -18 -16 -30 7 -25 47 -72 8 -91 -74 -9 -43 -15 -53 -25
-45 -7 6 -16 24 -19 40 -4 16 -11 31 -16 34 -16 10 -10 23 15 29 21 5 23 9 16
47 -9 47 -21 62 -46 57 -23 -4 -31 -52 -13 -74 9 -11 8 -14 -4 -14 -8 0 -36
-9 -62 -21 -26 -11 -51 -17 -55 -12 -8 7 -22 56 -35 126 -4 18 -12 27 -24 27
-30 0 -40 -21 -43 -90 -2 -52 -6 -64 -18 -61 -8 2 -26 6 -40 8 -23 4 -25 9
-25 59 0 45 -4 58 -28 81 -27 27 -28 28 -43 9 -17 -23 -18 -79 -3 -108 6 -11
26 -26 44 -34 24 -10 35 -22 40 -45 8 -36 62 -99 111 -130 l34 -21 -54 -59
c-30 -32 -57 -68 -61 -79 -3 -11 -11 -20 -16 -20 -14 0 -11 11 16 55 32 52 32
88 0 109 -23 15 -26 15 -61 -16 l-36 -32 -77 81 c-52 55 -88 84 -114 93 -36
11 -41 18 -49 75 -2 13 -12 21 -30 23 l-27 3 39 51 c44 55 55 85 46 124 -5 20
-11 24 -29 18 -32 -9 -47 -26 -62 -70 -14 -43 -29 -53 -39 -28 -4 11 6 38 29
75 34 56 43 100 26 128 -22 35 -99 -65 -87 -114 5 -21 0 -25 -56 -44 -73 -25
-84 -26 -69 -7 10 11 9 24 0 56 -10 32 -10 46 -1 60 15 25 1 33 -43 24 -40 -7
-44 0 -14 32 14 15 19 29 14 43 -8 27 -29 27 -71 0 -25 -15 -34 -17 -34 -7 0
28 64 90 158 152 167 110 197 160 152 256 -17 35 -21 57 -16 83 6 30 11 36 42
42 49 9 116 78 137 140 10 27 15 50 12 53 -15 15 -61 -16 -103 -69 -48 -62
-85 -89 -122 -89 -26 0 -26 26 0 40 33 18 33 51 1 152 -19 58 -31 116 -31 150
0 47 -5 61 -33 97 -18 23 -55 57 -82 77 -45 31 -66 40 -147 58 -16 4 -28 10
-28 14 0 5 25 40 55 79 30 39 59 82 65 97 8 21 16 26 45 26 37 0 75 28 75 56
0 13 7 15 40 9 34 -6 43 -3 65 19 14 14 25 36 25 49 0 30 16 37 80 37 43 0 54
5 83 34 51 51 211 98 442 130 17 2 125 3 240 1 167 -2 232 -7 318 -24z m4107
-96 c0 -21 -39 -71 -92 -119 -67 -60 -79 -64 -98 -41 -21 26 -36 17 -46 -27
-9 -43 -9 -43 -109 -85 -228 -97 -454 -153 -623 -153 l-103 0 -21 -35 c-11
-20 -25 -34 -31 -32 -26 8 -16 32 34 77 45 43 52 54 51 85 -1 32 2 38 32 50
18 8 39 21 46 30 12 15 11 19 -10 35 -23 18 -24 21 -11 52 7 18 22 56 33 83
l19 50 147 3 c81 1 221 9 312 16 169 14 470 20 470 11z m-7685 -542 c4 -10 10
-71 13 -135 l4 -117 -43 -3 c-44 -3 -44 -3 -41 -38 3 -35 30 -99 56 -133 11
-15 20 -16 66 -7 46 9 58 8 87 -10 45 -26 61 -25 69 4 3 14 11 27 17 29 7 2
120 -11 252 -29 463 -64 645 -68 880 -19 164 34 254 45 314 38 48 -5 63 -23
20 -23 -11 0 -138 -29 -282 -64 -415 -102 -514 -118 -731 -117 -77 1 -150 2
-161 4 -14 1 -19 -3 -17 -15 2 -15 -5 -18 -38 -18 -34 0 -40 3 -40 21 0 19 -4
20 -35 15 -41 -8 -224 9 -310 29 -125 29 -390 122 -423 148 -8 6 -11 20 -8 32
5 21 2 23 -62 27 -145 11 -214 90 -229 264 l-6 70 54 12 c136 30 315 48 485
51 88 1 103 -1 109 -16z m286 -28 c328 -34 584 -76 803 -130 160 -40 146 -38
146 -25 0 5 -21 16 -47 24 l-48 15 56 0 c77 1 185 -28 336 -92 70 -30 137 -58
148 -62 16 -6 9 -11 -35 -21 -309 -75 -789 -84 -1255 -24 -243 32 -304 59
-249 111 34 32 28 59 -16 74 -35 12 -35 12 -38 78 l-3 67 29 0 c17 0 94 -7
173 -15z m6134 -155 c14 -40 25 -76 25 -80 0 -3 -33 -3 -72 1 -40 4 -112 8
-159 8 l-87 1 -6 36 c-6 29 -11 35 -29 32 -17 -2 -23 -11 -25 -35 -2 -22 -9
-33 -25 -36 -21 -5 -89 4 -134 18 -20 6 -23 4 -23 -17 0 -23 -6 -26 -67 -37
-39 -7 -239 -16 -463 -21 -217 -5 -422 -14 -455 -19 -81 -15 -84 -14 -52 14
43 38 118 55 312 69 120 10 200 21 240 34 44 14 102 21 215 26 232 10 704 54
742 70 18 8 34 13 36 12 1 -2 13 -36 27 -76z m-4320 -32 c22 -45 42 -86 43
-90 7 -16 -30 -8 -81 18 -28 15 -74 30 -102 33 -49 6 -50 7 -53 42 -4 52 32
79 102 79 l51 -1 40 -81z m2575 -127 l45 -7 -33 -17 c-25 -14 -32 -23 -27 -37
4 -14 -2 -22 -22 -32 -16 -8 -29 -23 -31 -36 -3 -20 0 -23 25 -20 17 2 32 11
38 26 8 19 17 22 67 22 44 0 58 -3 58 -15 0 -17 -36 -52 -62 -61 -10 -3 -18
-10 -18 -16 0 -11 -45 -7 -219 23 -62 10 -117 19 -121 19 -4 0 -10 16 -12 35
-3 30 -1 35 17 35 15 0 24 9 30 32 6 19 21 38 35 45 27 14 156 16 230 4z
m1615 -11 c109 -13 195 -34 206 -52 5 -7 9 -26 9 -41 0 -22 -6 -30 -30 -38
-37 -14 -40 -45 -5 -61 34 -15 33 -45 -2 -52 -154 -31 -442 -45 -721 -34 -100
4 -303 19 -450 34 -147 14 -312 28 -366 30 -55 2 -102 6 -104 9 -3 3 3 23 13
46 15 31 16 45 8 58 -10 16 -6 20 26 30 59 17 115 14 144 -9 33 -26 46 -25 56
4 9 23 11 23 198 29 103 3 289 15 413 26 360 33 464 37 605 21z m-4095 -215
c-8 -10 -11 -32 -7 -64 l6 -48 -39 -12 c-21 -6 -66 -31 -99 -56 -69 -51 -77
-53 -86 -25 -7 23 -46 27 -63 7 -6 -7 -14 -36 -18 -65 -6 -48 -10 -55 -58 -89
-80 -58 -156 -133 -198 -197 -21 -33 -38 -63 -38 -68 0 -16 44 3 75 33 48 45
51 34 5 -18 -23 -26 -82 -112 -132 -190 -104 -165 -157 -228 -240 -285 -131
-88 -145 -92 -403 -99 -215 -5 -236 -7 -325 -34 l-95 -29 -500 0 c-560 -1
-552 -2 -673 71 -224 136 -292 355 -148 481 95 84 259 173 404 222 48 16 186
47 307 70 225 42 578 100 583 95 2 -1 -43 -31 -100 -66 -57 -34 -142 -89 -190
-121 l-88 -59 0 36 c0 38 -13 44 -45 21 -18 -13 -18 -15 -3 -38 16 -24 15 -25
-77 -114 l-94 -89 -15 28 c-10 19 -23 27 -41 27 -23 0 -25 -3 -20 -22 23 -75
117 -55 295 62 52 35 115 72 139 83 50 22 56 18 67 -48 8 -48 38 -111 59 -122
12 -7 -3 -22 -67 -66 -91 -61 -125 -77 -167 -77 -24 0 -30 -5 -35 -31 -4 -19
-28 -52 -70 -92 -67 -64 -106 -120 -106 -149 0 -22 22 -14 71 25 21 16 54 31
77 34 33 4 43 11 53 35 20 49 96 116 172 152 107 50 113 51 112 19 0 -21 5
-29 21 -31 26 -4 33 13 41 94 l6 62 81 4 c72 4 94 10 191 55 61 28 128 54 150
58 84 13 85 14 85 44 0 30 -19 20 265 144 114 50 444 181 598 237 98 36 117
46 117 64 1 71 78 152 176 187 45 16 46 16 71 -7 21 -20 24 -26 13 -39z m-350
-74 c0 -23 -17 -37 -55 -47 -17 -4 -69 -26 -116 -50 -122 -61 -290 -131 -394
-166 -49 -16 -119 -43 -154 -60 l-65 -31 -14 21 c-27 41 -65 19 -41 -24 7 -13
10 -26 8 -28 -17 -16 -335 -167 -378 -180 -69 -20 -169 -30 -214 -22 -45 8
-77 56 -77 114 0 59 37 96 160 161 64 35 116 70 138 96 l37 41 180 12 c338 22
631 71 835 140 137 46 150 48 150 23z m2965 -130 c211 -42 316 -54 419 -48 68
3 98 1 125 -11 28 -12 92 -17 291 -23 196 -5 267 -10 307 -23 29 -9 55 -21 58
-26 4 -6 -10 -17 -30 -26 -62 -26 -25 -74 58 -74 30 0 37 -4 37 -19 0 -11 15
-34 33 -50 l32 -31 -26 -72 -25 -73 -50 3 c-143 9 -286 47 -629 167 -132 46
-328 109 -435 140 -260 76 -331 106 -425 183 l-30 25 70 -6 c39 -3 138 -19
220 -36z m1365 -121 c19 -6 143 -17 275 -25 275 -16 309 -22 460 -81 61 -23
132 -48 159 -55 47 -12 86 -38 86 -59 0 -5 12 -12 28 -16 97 -21 163 -66 210
-143 88 -142 79 -313 -21 -418 -52 -56 -363 -168 -627 -227 -223 -50 -321 -61
-545 -60 -228 0 -334 13 -471 59 -184 62 -266 122 -421 312 -48 59 -124 134
-198 195 -171 142 -496 449 -488 460 18 30 282 -26 508 -107 72 -26 224 -76
338 -111 219 -67 270 -88 301 -123 12 -13 31 -21 51 -21 25 0 38 -9 65 -41 66
-83 216 -175 375 -229 96 -34 130 -40 129 -22 -1 6 -2 25 -2 40 -2 27 -5 29
-44 28 -67 -1 -134 23 -181 65 l-42 37 50 24 c73 34 196 32 283 -5 83 -34 178
-103 241 -174 l51 -57 0 35 c0 68 -98 183 -210 246 -84 47 -150 63 -267 63
-76 0 -103 3 -103 13 0 6 9 53 21 104 26 115 21 144 -36 219 -64 82 -58 98 25
74z m-2239 -1085 c10 4 19 9 19 13 0 4 4 13 9 20 7 11 12 11 28 1 16 -9 30
-10 66 -1 149 38 257 -16 351 -172 41 -68 48 -100 16 -71 -26 23 -35 15 -98
-83 -61 -95 -97 -167 -107 -209 -3 -18 -11 -33 -15 -33 -5 0 -29 20 -53 45
-69 69 -103 59 -114 -34 -5 -46 -8 -51 -27 -45 -12 3 -33 19 -48 35 -22 23
-33 28 -58 23 -28 -6 -30 -10 -30 -50 0 -42 -2 -44 -29 -44 -17 0 -39 11 -57
28 -85 81 -134 83 -134 6 0 -28 -8 -30 -48 -7 -37 21 -57 9 -66 -42 -4 -19
-10 -35 -14 -35 -5 0 -18 20 -30 45 -19 40 -25 45 -56 45 -44 0 -55 -16 -58
-78 -3 -46 -5 -52 -25 -52 -25 0 -46 30 -37 53 10 28 -98 37 -135 11 -21 -15
-24 -15 -50 10 -23 23 -31 25 -60 16 -18 -5 -53 -27 -77 -50 -45 -41 -74 -51
-74 -26 0 22 -40 46 -75 46 -23 0 -34 -7 -46 -29 -9 -15 -30 -33 -47 -39 l-30
-10 5 38 5 39 -53 15 c-30 8 -94 20 -144 26 -174 21 -225 31 -225 45 0 8 -12
25 -26 39 -25 22 -29 23 -60 10 -37 -16 -41 -15 -141 29 -102 45 -118 90 -63
178 42 68 46 93 20 112 -20 14 -20 15 17 48 32 28 38 39 38 73 l0 41 95 5 c52
3 107 12 122 19 21 11 31 11 42 2 17 -15 59 -17 110 -7 36 7 38 6 33 -14 -8
-32 9 -69 38 -82 22 -10 31 -8 71 20 49 35 64 39 64 18 0 -22 66 -30 101 -12
29 14 34 14 70 -4 47 -24 57 -25 81 -3 18 16 21 15 54 -20 45 -46 74 -48 107
-6 l25 32 23 -27 c30 -34 41 -33 89 10 36 33 43 36 66 25 51 -23 124 -2 124
35 0 13 5 12 26 -5 52 -41 160 -36 179 8 9 22 14 23 77 17 59 -5 70 -4 88 14
11 11 20 24 20 29 0 6 25 -1 56 -15 31 -14 64 -22 75 -19z"/>
<path d="M343 7285 c-14 -11 -16 -18 -7 -32 17 -27 39 -27 52 2 15 33 15 32
-8 38 -10 3 -27 -1 -37 -8z"/>
<path d="M630 7290 c-13 -9 -13 -11 0 -20 25 -17 50 -12 50 10 0 22 -25 27
-50 10z"/>
<path d="M1056 7238 c-9 -36 -8 -38 25 -38 28 0 31 3 25 23 -3 12 -6 25 -6 30
0 18 -38 5 -44 -15z"/>
<path d="M698 7175 c-20 -27 -15 -35 23 -35 37 0 43 13 16 38 l-22 20 -17 -23z"/>
<path d="M1360 7111 c-15 -29 -2 -53 24 -45 31 9 35 16 25 42 -10 27 -35 29
-49 3z"/>
<path d="M195 7101 c-10 -17 4 -31 31 -31 19 0 25 5 22 18 -4 19 -43 29 -53
13z"/>
<path d="M736 7102 c-8 -14 5 -52 18 -52 18 0 36 21 36 42 0 12 -8 18 -24 18
-14 0 -27 -4 -30 -8z"/>
<path d="M1110 7081 c0 -26 10 -31 39 -20 19 8 21 12 11 24 -18 22 -50 19 -50
-4z"/>
<path d="M434 7078 c-6 -10 20 -38 37 -38 9 0 18 37 11 44 -10 10 -41 6 -48
-6z"/>
<path d="M1604 7065 c-9 -23 14 -45 26 -25 5 8 8 19 7 24 -6 17 -27 18 -33 1z"/>
<path d="M1226 6939 c-21 -52 -20 -125 2 -169 17 -34 86 -80 100 -66 3 4 -2
36 -11 71 -10 36 -15 76 -11 90 3 14 7 25 8 25 1 0 95 -16 208 -35 229 -38
390 -73 506 -110 42 -13 78 -23 80 -21 8 8 -149 97 -228 129 -160 66 -237 81
-412 83 -125 0 -161 4 -175 16 -37 31 -50 29 -67 -13z"/>
<path d="M1703 6954 c-8 -21 13 -42 28 -27 13 13 5 43 -11 43 -6 0 -13 -7 -17
-16z"/>
<path d="M847 6948 c-6 -19 11 -48 28 -48 10 0 15 10 15 30 0 23 -5 30 -19 30
-11 0 -21 -6 -24 -12z"/>
<path d="M1990 6946 c0 -19 42 -94 55 -100 47 -18 61 11 25 57 -11 14 -20 30
-20 36 0 6 -13 11 -30 11 -16 0 -30 -2 -30 -4z"/>
<path d="M476 6911 c-10 -15 4 -40 26 -47 24 -7 38 10 31 37 -6 20 -47 27 -57
10z"/>
<path d="M380 6885 c-14 -17 -7 -45 13 -45 19 0 37 21 37 42 0 22 -32 24 -50
3z"/>
<path d="M2341 6861 c-16 -29 -14 -31 25 -31 39 0 42 14 7 37 -19 13 -23 12
-32 -6z"/>
<path d="M2554 6725 c-8 -20 13 -45 38 -45 27 0 35 30 13 46 -25 18 -44 18
-51 -1z"/>
<path d="M2283 6673 c-7 -2 -13 -16 -13 -29 0 -17 8 -27 27 -35 35 -13 53 -5
53 24 0 38 -29 56 -67 40z"/>
<path d="M619 6660 c-31 -20 33 -91 99 -110 20 -6 105 -17 187 -25 83 -8 173
-21 200 -30 64 -21 123 -15 245 24 105 34 161 39 180 16 19 -23 49 -18 88 16
l35 31 111 -7 c380 -23 681 -87 949 -201 86 -37 229 -116 284 -157 33 -24 33
-24 13 -42 -42 -38 -17 -71 46 -59 27 5 34 11 34 30 0 50 45 20 75 -51 30 -71
27 -21 -6 80 -17 54 -51 149 -75 212 -24 63 -44 116 -44 118 0 2 14 6 30 10
30 7 36 19 24 49 -5 12 -10 13 -25 5 -13 -6 -25 -6 -38 1 -47 25 -53 -2 -20
-80 l21 -49 -25 -31 c-14 -16 -29 -39 -32 -51 -6 -18 -9 -19 -29 -6 -12 8 -67
34 -122 57 -146 62 -210 97 -253 135 -45 41 -54 42 -73 13 l-15 -22 -59 22
c-173 62 -307 83 -579 89 -214 5 -413 -9 -540 -37 -34 -8 -42 -7 -56 10 -20
23 -31 15 -23 -16 l6 -24 -105 0 c-132 0 -245 21 -321 60 -37 19 -63 27 -73
22 -8 -5 -34 -6 -58 -2 -24 4 -49 4 -56 0z"/>
<path d="M2780 6621 c0 -19 18 -31 46 -31 8 0 14 10 14 25 0 21 -5 25 -30 25
-23 0 -30 -5 -30 -19z"/>
<path d="M535 6610 c-8 -13 12 -40 29 -40 6 0 18 5 26 10 13 9 12 12 -4 25
-23 18 -42 19 -51 5z"/>
<path d="M1530 6450 c0 -25 4 -30 25 -30 25 0 51 32 40 50 -3 6 -19 10 -36 10
-26 0 -29 -3 -29 -30z"/>
<path d="M713 6463 c-18 -7 -16 -30 3 -37 19 -7 44 10 44 30 0 14 -23 17 -47
7z"/>
<path d="M1806 6388 c-11 -15 -12 -26 -5 -40 11 -21 10 -21 43 -8 31 11 33 30
8 53 -24 22 -28 21 -46 -5z"/>
<path d="M726 6368 c-9 -35 -8 -38 19 -38 27 0 35 26 13 48 -17 17 -25 15 -32
-10z"/>
<path d="M2395 6370 c6 -32 14 -40 41 -40 20 0 24 5 24 30 0 28 -3 30 -34 30
-29 0 -34 -3 -31 -20z"/>
<path d="M3260 6381 c0 -11 28 -41 39 -41 12 0 31 23 31 37 0 8 -13 13 -35 13
-19 0 -35 -4 -35 -9z"/>
<path d="M2267 6363 c-14 -14 -6 -31 17 -35 32 -6 51 6 43 26 -6 16 -47 22
-60 9z"/>
<path d="M3474 6355 c-9 -22 5 -37 29 -29 30 9 32 11 17 29 -16 19 -39 19 -46
0z"/>
<path d="M933 6353 c-28 -11 0 -53 35 -53 8 0 25 41 19 46 -8 6 -44 11 -54 7z"/>
<path d="M1280 6351 c0 -5 21 -18 48 -30 82 -37 97 -47 94 -63 -4 -24 59 -34
75 -11 7 9 13 22 13 29 0 16 -43 47 -94 68 -41 17 -136 22 -136 7z"/>
<path d="M973 6274 c-6 -16 15 -37 29 -28 4 3 8 14 8 25 0 23 -28 26 -37 3z"/>
<path d="M2565 6280 c-10 -16 15 -40 41 -40 25 0 28 7 18 34 -7 18 -49 22 -59
6z"/>
<path d="M767 6253 c-15 -14 -6 -53 14 -64 23 -12 41 3 36 30 -3 17 -41 43
-50 34z"/>
<path d="M3690 6215 c-16 -20 -5 -45 20 -45 16 0 20 7 20 30 0 33 -19 40 -40
15z"/>
<path d="M1245 6190 c-7 -21 9 -50 26 -50 16 0 23 52 8 61 -21 13 -27 11 -34
-11z"/>
<path d="M1961 6201 c-21 -14 -5 -43 21 -39 29 4 39 48 11 48 -10 0 -24 -4
-32 -9z"/>
<path d="M2564 6195 c-9 -21 14 -45 42 -45 19 0 24 5 24 24 0 35 -55 52 -66
21z"/>
<path d="M2771 6151 c-21 -14 -5 -43 21 -39 29 4 39 48 11 48 -10 0 -24 -4
-32 -9z"/>
<path d="M3254 6125 c-4 -9 0 -23 9 -32 21 -21 49 -9 45 19 -4 28 -45 38 -54
13z"/>
<path d="M3400 6121 c0 -46 61 -48 73 -1 4 18 0 20 -34 20 -31 0 -39 -4 -39
-19z"/>
<path d="M3562 6105 c-11 -24 -10 -25 21 -25 43 0 63 18 39 36 -26 20 -48 16
-60 -11z"/>
<path d="M1444 6095 c-8 -20 4 -35 27 -35 21 0 25 20 7 38 -16 16 -27 15 -34
-3z"/>
<path d="M1134 6079 c-9 -15 12 -33 30 -26 9 4 16 13 16 22 0 17 -35 21 -46 4z"/>
<path d="M2040 6055 c0 -20 4 -26 18 -23 9 2 17 12 17 23 0 11 -8 21 -17 23
-14 3 -18 -3 -18 -23z"/>
<path d="M3831 6058 c-10 -26 2 -38 37 -38 18 0 22 6 22 30 0 25 -4 30 -25 30
-17 0 -28 -7 -34 -22z"/>
<path d="M2756 6044 c-26 -25 -19 -37 16 -30 40 8 44 12 28 31 -16 19 -25 19
-44 -1z"/>
<path d="M3731 6029 c-22 -9 -22 -11 -9 -32 20 -30 68 -36 68 -8 0 48 -14 58
-59 40z"/>
<path d="M3953 5964 c-8 -22 27 -50 39 -31 4 6 8 20 8 30 0 22 -38 23 -47 1z"/>
<path d="M4212 5883 c4 -35 34 -43 43 -12 5 14 2 25 -6 30 -27 17 -40 10 -37
-18z"/>
<path d="M1227 5863 c-4 -3 -7 -15 -7 -26 0 -16 5 -18 27 -12 35 8 37 11 30
30 -6 15 -38 21 -50 8z"/>
<path d="M1391 5841 c-21 -13 -5 -41 24 -41 27 0 33 18 13 38 -14 14 -19 15
-37 3z"/>
<path d="M4463 5843 c-7 -3 -13 -13 -13 -24 0 -14 7 -19 25 -19 18 0 25 5 25
19 0 20 -17 31 -37 24z"/>
<path d="M1720 5810 c0 -11 2 -20 4 -20 2 0 11 -3 20 -6 12 -5 16 0 16 20 0
19 -5 26 -20 26 -13 0 -20 -7 -20 -20z"/>
<path d="M1472 5778 c4 -31 53 -38 61 -9 6 26 0 31 -35 31 -25 0 -29 -4 -26
-22z"/>
<path d="M4797 5779 c-21 -12 -23 -39 -2 -39 16 0 39 36 27 44 -4 2 -15 0 -25
-5z"/>
<path d="M4670 5751 c0 -12 2 -21 4 -21 2 0 12 -3 21 -6 13 -5 16 -2 13 17 -4
31 -38 39 -38 10z"/>
<path d="M1957 5728 c-21 -11 -22 -47 -2 -54 19 -8 45 13 45 36 0 22 -21 31
-43 18z"/>
<path d="M4878 5733 c-24 -6 -23 -25 3 -41 25 -16 43 -4 37 24 -3 19 -14 24
-40 17z"/>
<path d="M1430 5675 c0 -20 5 -25 25 -25 27 0 33 18 13 38 -20 20 -38 14 -38
-13z"/>
<path d="M2203 5654 c-3 -8 -1 -20 5 -26 16 -16 47 -5 50 20 3 18 -1 22 -23
22 -14 0 -28 -7 -32 -16z"/>
<path d="M1990 5602 c0 -10 7 -28 16 -40 9 -13 13 -31 9 -42 -5 -16 -2 -20 15
-20 25 0 37 25 20 45 -7 8 -10 26 -8 39 3 16 0 27 -9 30 -27 11 -43 6 -43 -12z"/>
<path d="M1578 5579 c-22 -12 -23 -23 -2 -43 21 -22 56 -3 52 27 -3 25 -25 32
-50 16z"/>
<path d="M2375 5550 c-9 -15 4 -30 26 -30 12 0 19 7 19 20 0 21 -33 29 -45 10z"/>
<path d="M2200 5512 c0 -37 7 -43 35 -30 46 21 43 58 -6 58 -25 0 -29 -4 -29
-28z"/>
<path d="M1850 5501 c0 -10 6 -24 14 -30 20 -17 46 -3 46 25 0 20 -5 24 -30
24 -23 0 -30 -5 -30 -19z"/>
<path d="M12283 7193 c-19 -7 -16 -43 3 -50 18 -7 44 20 44 44 0 13 -23 16
-47 6z"/>
<path d="M12527 7069 c-13 -8 -15 -14 -7 -30 14 -25 36 -24 50 1 19 35 -5 51
-43 29z"/>
<path d="M11625 7039 c-4 -5 1 -19 11 -30 15 -17 19 -18 32 -5 8 8 12 22 9 30
-7 18 -42 22 -52 5z"/>
<path d="M12450 6924 c0 -21 4 -25 23 -22 14 2 23 11 25 26 3 18 -1 22 -22 22
-21 0 -26 -5 -26 -26z"/>
<path d="M12143 6933 c-26 -9 -13 -33 17 -33 17 0 30 4 30 10 0 13 -32 28 -47
23z"/>
<path d="M11720 6871 c-14 -27 -5 -41 26 -41 29 0 31 20 5 44 -19 17 -20 17
-31 -3z"/>
<path d="M11947 6871 c-3 -12 1 -22 10 -25 26 -10 33 -6 33 19 0 31 -35 35
-43 6z"/>
<path d="M12220 6836 c0 -27 28 -43 36 -21 6 16 -12 45 -27 45 -5 0 -9 -11 -9
-24z"/>
<path d="M11480 6822 c0 -25 23 -44 44 -36 28 11 16 48 -16 52 -22 3 -28 -1
-28 -16z"/>
<path d="M11313 6823 c-19 -7 -16 -50 3 -57 22 -9 34 1 34 29 0 24 -16 35 -37
28z"/>
<path d="M12045 6810 c-6 -20 9 -50 26 -50 14 0 21 41 9 55 -17 20 -27 19 -35
-5z"/>
<path d="M11795 6759 c-3 -4 1 -30 8 -58 12 -46 15 -50 31 -38 13 10 17 24 14
57 -3 37 -6 44 -26 45 -13 1 -25 -2 -27 -6z"/>
<path d="M12387 6733 c-16 -15 -6 -33 18 -33 27 0 32 9 13 28 -14 14 -22 15
-31 5z"/>
<path d="M10520 6718 c0 -22 17 -41 29 -34 19 12 13 46 -9 46 -11 0 -20 -6
-20 -12z"/>
<path d="M10445 6690 c-3 -6 -3 -19 0 -31 11 -32 59 -22 63 14 3 24 0 27 -27
27 -16 0 -33 -5 -36 -10z"/>
<path d="M11595 6674 c-20 -20 -5 -34 37 -34 32 0 44 15 28 35 -16 20 -45 19
-65 -1z"/>
<path d="M11400 6645 c0 -18 5 -25 20 -25 24 0 28 35 4 44 -23 9 -24 8 -24
-19z"/>
<path d="M10880 6620 c-15 -28 -5 -40 36 -40 29 0 34 3 34 24 0 38 -52 50 -70
16z"/>
<path d="M10205 6609 c-8 -25 -7 -26 26 -34 30 -7 47 18 28 41 -17 21 -47 17
-54 -7z"/>
<path d="M10797 6584 c-4 -4 -7 -18 -7 -30 0 -23 31 -41 50 -29 13 8 13 55 1
55 -5 0 -16 2 -23 5 -8 3 -17 2 -21 -1z"/>
<path d="M11382 6560 c-18 -29 -15 -40 13 -40 18 0 25 5 25 19 0 30 -24 43
-38 21z"/>
<path d="M11170 6513 c0 -10 4 -24 9 -32 8 -12 12 -12 25 -2 20 17 20 37 0 45
-26 10 -34 7 -34 -11z"/>
<path d="M11948 6518 c-8 -21 2 -38 24 -38 14 0 19 6 16 22 -3 25 -33 36 -40
16z"/>
<path d="M11748 6514 c-14 -13 6 -44 27 -44 23 0 40 24 29 41 -6 10 -47 12
-56 3z"/>
<path d="M12137 6484 c-16 -16 -6 -35 16 -32 12 2 22 10 22 18 0 16 -26 25
-38 14z"/>
<path d="M12225 6479 c-9 -13 -5 -16 20 -21 12 -2 21 3 23 15 4 19 -32 25 -43
6z"/>
<path d="M12197 6334 c-14 -15 -6 -43 14 -49 25 -8 42 6 37 31 -3 19 -38 31
-51 18z"/>
<path d="M11107 6323 c-4 -3 -7 -17 -7 -30 0 -18 5 -23 25 -23 21 0 25 5 25
30 0 22 -5 30 -18 30 -10 0 -22 -3 -25 -7z"/>
<path d="M11830 6291 c0 -16 6 -21 26 -21 33 0 30 33 -4 38 -17 3 -22 -2 -22
-17z"/>
<path d="M11370 6266 c0 -27 12 -46 30 -46 20 0 36 33 25 50 -10 15 -55 12
-55 -4z"/>
<path d="M10982 6119 c-26 -23 -27 -32 -7 -49 18 -15 45 8 45 39 0 29 -14 33
-38 10z"/>
<path d="M11960 6125 c0 -8 2 -15 4 -15 2 0 11 -3 19 -6 9 -3 16 3 20 15 4 17
0 21 -19 21 -15 0 -24 -6 -24 -15z"/>
<path d="M11467 6064 c-16 -16 -7 -44 14 -44 15 0 20 5 17 22 -3 22 -19 33
-31 22z"/>
<path d="M12010 6028 c0 -9 9 -22 20 -28 18 -10 20 -8 20 18 0 21 -5 28 -20
28 -12 0 -20 -7 -20 -18z"/>
<path d="M10763 6014 c-6 -17 20 -44 43 -44 18 0 26 30 13 46 -16 19 -48 18
-56 -2z"/>
<path d="M11812 6009 c3 -23 33 -48 43 -37 3 3 3 17 -1 32 -8 33 -47 38 -42 5z"/>
<path d="M10406 5941 c-3 -5 -12 -37 -21 -72 -19 -81 -20 -189 -1 -214 32 -44
76 24 76 122 1 32 5 77 9 101 8 40 7 44 -20 57 -33 17 -36 18 -43 6z"/>
<path d="M11166 5862 c-8 -14 5 -52 19 -52 7 0 18 7 25 15 10 12 10 18 0 30
-14 16 -36 20 -44 7z"/>
<path d="M11816 5862 c-9 -14 21 -35 40 -28 8 3 14 12 12 19 -6 15 -44 22 -52
9z"/>
<path d="M11570 5851 c0 -5 7 -17 16 -26 14 -13 19 -14 25 -3 15 24 9 38 -16
38 -14 0 -25 -4 -25 -9z"/>
<path d="M10863 5722 c-8 -18 12 -36 31 -29 24 10 20 43 -5 43 -12 0 -24 -6
-26 -14z"/>
<path d="M11213 5714 c-8 -22 27 -50 39 -31 4 6 8 20 8 30 0 22 -38 23 -47 1z"/>
<path d="M10170 5695 c0 -20 5 -25 25 -25 26 0 29 7 19 34 -10 27 -44 20 -44
-9z"/>
<path d="M11526 5711 c-14 -22 23 -59 45 -45 5 3 9 16 9 30 0 19 -5 24 -24 24
-14 0 -27 -4 -30 -9z"/>
<path d="M9980 5697 c0 -16 39 -36 58 -30 6 3 12 13 12 24 0 15 -7 19 -35 19
-23 0 -35 -5 -35 -13z"/>
<path d="M11642 5686 c-13 -28 -7 -36 25 -36 25 0 32 27 11 48 -17 17 -23 15
-36 -12z"/>
<path d="M10877 5588 c-11 -9 -14 -18 -8 -26 12 -20 46 -10 46 12 0 24 -16 30
-38 14z"/>
<path d="M11187 5523 c-10 -16 10 -35 34 -31 33 4 31 32 -3 36 -14 2 -28 -1
-31 -5z"/>
<path d="M11046 5501 c-17 -19 -17 -20 3 -30 20 -11 51 -15 51 -7 0 15 -21 56
-28 56 -5 0 -17 -9 -26 -19z"/>
<path d="M11430 5490 c0 -25 4 -30 25 -30 21 0 25 5 25 30 0 25 -4 30 -25 30
-21 0 -25 -5 -25 -30z"/>
<path d="M10056 5438 c-31 -75 -31 -78 7 -78 32 0 34 2 44 47 13 54 10 63 -18
63 -13 0 -25 -11 -33 -32z"/>
<path d="M9833 6363 c-23 -8 -14 -33 12 -33 15 0 25 6 25 14 0 16 -19 25 -37
19z"/>
<path d="M9530 6256 c0 -29 13 -46 35 -46 30 0 35 9 24 38 -10 25 -59 32 -59
8z"/>
<path d="M9412 6221 c-21 -13 -5 -81 18 -81 50 0 63 27 34 68 -16 23 -31 27
-52 13z"/>
<path d="M9217 6186 c-3 -8 -18 -20 -34 -28 -15 -7 -29 -21 -31 -31 -3 -14 4
-17 32 -17 25 0 36 4 36 15 0 13 19 20 43 16 5 -1 7 11 5 26 -3 31 -41 45 -51
19z"/>
<path d="M9590 6145 c-21 -56 -21 -71 -2 -89 33 -29 57 -5 60 60 2 52 1 54
-23 54 -18 0 -28 -7 -35 -25z"/>
<path d="M9067 6059 c-33 -17 -77 -69 -77 -91 0 -5 13 -8 28 -8 20 0 32 8 45
29 10 16 27 31 39 33 16 2 22 10 23 31 1 32 -7 33 -58 6z"/>
<path d="M8780 5961 c0 -5 -16 -28 -35 -51 -19 -23 -35 -46 -35 -51 0 -13 47
-11 72 2 15 8 22 8 28 -1 13 -21 39 -4 33 20 -3 12 -11 19 -19 16 -10 -4 -10
2 1 29 14 31 13 33 -8 39 -30 8 -37 7 -37 -3z"/>
<path d="M9264 5955 c-10 -26 4 -45 35 -45 34 0 47 23 25 45 -20 19 -53 19
-60 0z"/>
<path d="M9477 5923 c-6 -11 10 -53 21 -53 14 0 32 23 32 42 0 12 -8 18 -24
18 -14 0 -27 -3 -29 -7z"/>
<path d="M8925 5890 c-9 -15 14 -40 36 -40 27 0 35 21 14 37 -22 16 -41 17
-50 3z"/>
<path d="M8554 5872 c-35 -24 -60 -102 -32 -102 6 0 19 -7 29 -16 26 -24 39
-9 39 45 0 49 -18 86 -36 73z"/>
<path d="M8631 5801 c-18 -32 -13 -58 11 -65 34 -8 54 17 42 51 -12 34 -39 41
-53 14z"/>
<path d="M8333 5773 c-18 -7 -16 -38 2 -53 17 -14 69 -7 92 11 7 6 13 20 13
30 0 16 -7 19 -47 18 -27 0 -54 -3 -60 -6z"/>
<path d="M6244 6415 c-4 -8 -3 -31 0 -50 7 -33 9 -35 47 -35 47 0 57 16 35 58
-22 42 -71 58 -82 27z"/>
<path d="M6502 6384 c-16 -11 -22 -25 -22 -54 0 -43 18 -60 65 -60 25 0 26 2
19 38 -18 93 -25 102 -62 76z"/>
<path d="M7148 6301 c-68 -19 -72 -23 -64 -56 8 -30 36 -33 113 -10 61 18 92
47 73 70 -15 18 -48 18 -122 -4z"/>
<path d="M6118 6303 c-28 -7 -24 -68 7 -99 30 -30 42 -25 51 21 13 70 -4 92
-58 78z"/>
<path d="M5790 6266 c0 -53 98 -87 146 -52 17 13 17 16 4 30 -14 14 -110 46
-137 46 -7 0 -13 -11 -13 -24z"/>
<path d="M6744 6244 c-9 -34 7 -49 35 -35 24 13 27 31 9 49 -19 19 -37 14 -44
-14z"/>
<path d="M7203 6195 c-31 -13 -54 -57 -39 -73 22 -22 143 13 174 51 11 12 7
17 -19 26 -42 14 -77 13 -116 -4z"/>
<path d="M5631 6171 c-22 -14 0 -64 33 -76 34 -12 60 3 64 35 6 40 -57 66 -97
41z"/>
<path d="M7273 6099 c-35 -10 -39 -19 -23 -49 14 -26 71 -35 125 -20 56 16 69
30 51 55 -16 22 -103 30 -153 14z"/>
<path d="M5520 6085 c-19 -23 -2 -52 41 -69 51 -21 66 -20 79 3 18 34 11 48
-33 65 -53 20 -71 20 -87 1z"/>
<path d="M5455 5979 c-15 -23 6 -60 41 -75 55 -23 113 1 93 38 -19 36 -118 63
-134 37z"/>
<path d="M7331 5971 c-12 -8 -12 -14 -1 -40 11 -29 16 -31 61 -31 26 0 74 -7
105 -15 66 -17 87 -10 103 36 6 18 11 33 11 35 0 1 -23 7 -50 13 -61 13 -209
14 -229 2z"/>
<path d="M5907 5913 c-4 -3 -7 -19 -7 -35 0 -24 4 -28 29 -28 35 0 45 12 37
46 -5 17 -13 24 -30 24 -12 0 -26 -3 -29 -7z"/>
<path d="M5857 5799 c-10 -6 -17 -22 -17 -37 0 -61 63 -99 76 -47 14 55 -21
105 -59 84z"/>
<path d="M5803 5270 c-42 -17 -14 -60 40 -60 20 0 30 7 37 26 6 14 8 30 4 35
-7 11 -52 11 -81 -1z"/>
<path d="M5990 5163 c-41 -14 -55 -73 -17 -73 29 0 47 18 47 46 0 26 -8 33
-30 27z"/>
<path d="M6118 5079 c-23 -13 -41 -78 -26 -96 12 -15 56 -17 77 -4 11 7 11 17
0 60 -13 52 -21 58 -51 40z"/>
<path d="M6264 5055 c-20 -46 -24 -119 -8 -135 18 -18 50 -3 64 30 15 36 6 90
-20 122 l-19 23 -17 -40z"/>
<path d="M6516 5058 c-37 -37 -55 -100 -35 -124 17 -20 50 -17 82 10 25 20 27
26 17 50 -5 15 -10 43 -10 62 0 43 -13 43 -54 2z"/>
<path d="M6666 5052 c-33 -49 -33 -62 3 -62 20 0 36 9 50 26 19 24 19 28 4 50
-8 13 -19 24 -23 24 -4 0 -19 -17 -34 -38z"/>
<path d="M5689 5021 c-25 -16 -49 -36 -52 -46 -11 -26 -8 -65 3 -65 26 0 93
44 110 73 40 64 10 83 -61 38z"/>
<path d="M7130 4980 c0 -39 47 -91 61 -69 22 35 -5 99 -42 99 -15 0 -19 -7
-19 -30z"/>
<path d="M5791 4960 c-64 -47 -103 -125 -71 -145 16 -10 86 50 103 87 20 45
29 88 19 88 -5 0 -28 -14 -51 -30z"/>
<path d="M7258 4965 c-9 -21 -8 -28 7 -45 11 -12 28 -20 39 -18 39 6 14 88
-26 88 -5 0 -14 -11 -20 -25z"/>
<path d="M5859 4901 c-24 -24 -29 -38 -29 -75 0 -39 3 -46 20 -46 25 0 60 34
60 58 0 9 3 34 6 55 6 31 4 37 -10 37 -10 0 -31 -13 -47 -29z"/>
<path d="M5544 4900 c-51 -20 -71 -97 -36 -141 l19 -22 26 54 c28 58 38 111
22 115 -5 1 -20 -1 -31 -6z"/>
<path d="M6930 4904 c0 -29 57 -94 83 -94 17 0 19 5 13 32 -9 43 -33 68 -68
68 -15 0 -28 -3 -28 -6z"/>
<path d="M5962 4845 c-16 -34 -15 -102 1 -112 6 -4 42 -8 80 -8 l67 0 6 32
c10 54 0 67 -46 59 -29 -4 -40 -3 -40 6 0 20 -13 35 -36 42 -16 5 -23 0 -32
-19z"/>
<path d="M6551 4818 c12 -46 54 -81 80 -68 26 14 24 33 -7 69 -18 21 -35 31
-54 31 -27 0 -28 -1 -19 -32z"/>
<path d="M6745 4841 c-3 -5 2 -27 10 -49 28 -68 95 -79 79 -12 -11 49 -71 90
-89 61z"/>
<path d="M7114 4666 c-11 -44 42 -116 86 -116 56 0 54 21 -7 82 -32 32 -61 58
-65 58 -4 0 -10 -11 -14 -24z"/>
<path d="M6957 4623 c8 -57 36 -107 66 -117 15 -6 29 -7 32 -4 10 9 -28 108
-51 133 -35 38 -54 33 -47 -12z"/>
<path d="M6783 4579 c7 -54 40 -89 84 -89 18 0 33 2 33 5 0 20 -44 87 -69 104
-44 32 -55 28 -48 -20z"/>
<path d="M5832 4592 c-42 -42 -37 -128 8 -152 18 -10 22 -7 35 24 20 48 19 99
-3 126 l-19 23 -21 -21z"/>
<path d="M10393 6265 c-7 -19 13 -36 37 -32 8 1 15 11 15 22 0 26 -42 34 -52
10z"/>
<path d="M10320 6227 c0 -15 37 -53 45 -45 2 2 6 15 7 29 3 20 -2 25 -24 27
-19 2 -28 -1 -28 -11z"/>
<path d="M10165 6210 c-26 -28 -13 -52 27 -48 38 3 48 27 23 52 -21 21 -28 20
-50 -4z"/>
<path d="M2824 5789 c-43 -15 -34 -59 11 -59 25 0 45 18 45 41 0 20 -28 29
-56 18z"/>
<path d="M3180 5701 c0 -26 27 -34 39 -12 12 21 5 31 -21 31 -11 0 -18 -7 -18
-19z"/>
<path d="M2932 5683 c5 -48 78 -40 78 8 0 16 -8 19 -41 19 -38 0 -40 -1 -37
-27z"/>
<path d="M2977 5613 c-13 -12 -7 -44 9 -50 18 -7 44 20 44 44 0 13 -41 18 -53
6z"/>
<path d="M2744 5573 c-5 -19 -2 -30 11 -40 25 -17 32 -17 44 5 16 29 2 62 -25
62 -17 0 -25 -7 -30 -27z"/>
<path d="M3602 5376 c-13 -29 -7 -36 31 -36 26 0 29 3 23 23 -3 12 -6 25 -6
30 0 18 -38 5 -48 -17z"/>
<path d="M3703 5333 c-19 -7 -16 -41 5 -51 26 -14 42 -3 42 29 0 29 -14 36
-47 22z"/>
<path d="M3506 5672 c-9 -15 19 -57 39 -57 20 0 48 42 39 57 -3 4 -20 8 -39 8
-19 0 -36 -4 -39 -8z"/>
<path d="M4508 5642 c9 -6 11 -21 6 -50 -6 -40 -5 -42 18 -42 20 0 27 6 31 30
5 22 14 31 34 36 l28 7 -30 13 c-33 14 -108 19 -87 6z"/>
<path d="M3740 5605 c-25 -30 15 -70 45 -45 8 7 15 23 15 36 0 19 -5 24 -24
24 -13 0 -29 -7 -36 -15z"/>
<path d="M4016 5574 c-4 -10 1 -25 10 -35 13 -14 20 -16 40 -7 13 6 24 16 24
23 0 33 -63 49 -74 19z"/>
<path d="M4156 5504 c-9 -24 -8 -26 21 -22 37 4 45 38 10 38 -14 0 -28 -7 -31
-16z"/>
<path d="M8890 5415 c-14 -8 -33 -14 -42 -15 -24 0 -23 -27 1 -40 23 -12 48
-5 79 23 43 40 16 63 -38 32z"/>
<path d="M8377 5393 c-4 -3 -7 -17 -7 -30 0 -19 5 -23 31 -23 24 0 30 3 25 16
-3 9 -6 22 -6 30 0 14 -31 20 -43 7z"/>
<path d="M8660 5380 c-14 -27 -5 -40 29 -40 25 0 27 3 23 30 -5 36 -35 41 -52
10z"/>
<path d="M8450 5315 c0 -22 4 -25 35 -25 31 0 35 3 35 25 0 22 -4 25 -35 25
-31 0 -35 -3 -35 -25z"/>
<path d="M9358 5323 c-9 -34 2 -43 53 -43 48 0 49 1 49 30 0 29 -1 30 -49 30
-38 0 -50 -4 -53 -17z"/>
<path d="M4857 4933 c-10 -16 13 -54 30 -51 27 5 24 52 -4 56 -11 2 -23 0 -26
-5z"/>
<path d="M4755 4794 c-8 -9 -15 -24 -15 -35 0 -16 6 -20 28 -17 21 2 28 9 30
29 4 32 -21 45 -43 23z"/>
<path d="M4523 4713 c-7 -2 -13 -17 -13 -32 0 -25 3 -27 30 -23 25 4 30 9 30
33 0 29 -15 36 -47 22z"/>
<path d="M2729 4675 c-14 -8 -34 -26 -44 -41 -14 -22 -15 -28 -4 -35 24 -15
56 -10 62 10 2 11 15 21 28 23 27 3 38 36 17 49 -18 12 -29 11 -59 -6z"/>
<path d="M2824 4665 c-10 -25 4 -45 31 -45 33 0 45 28 20 46 -25 18 -44 18
-51 -1z"/>
<path d="M2990 4666 c0 -27 12 -46 30 -46 17 0 34 36 24 52 -9 14 -54 9 -54
-6z"/>
<path d="M4431 4671 c-19 -12 -6 -41 19 -41 11 0 20 4 20 9 0 5 3 16 6 25 7
18 -21 22 -45 7z"/>
<path d="M2533 4663 c-20 -8 -15 -41 8 -54 17 -9 25 -8 37 5 27 27 -8 65 -45
49z"/>
<path d="M4620 4607 c-29 -15 -33 -50 -7 -55 25 -5 47 16 47 44 0 27 -5 29
-40 11z"/>
<path d="M3412 4568 c-21 -21 -13 -38 18 -38 23 0 30 5 30 19 0 10 -7 22 -16
25 -20 8 -18 8 -32 -6z"/>
<path d="M2587 4508 c-8 -27 -1 -38 24 -38 25 0 35 25 19 45 -18 21 -37 18
-43 -7z"/>
<path d="M4680 4512 c-18 -14 -22 -25 -16 -45 8 -32 16 -33 46 -9 18 14 22 25
16 45 -8 32 -16 33 -46 9z"/>
<path d="M4210 4489 c-34 -14 -43 -32 -23 -46 42 -32 142 9 117 48 -7 12 -62
11 -94 -2z"/>
<path d="M2510 4466 c0 -34 18 -42 42 -18 24 24 16 42 -18 42 -19 0 -24 -5
-24 -24z"/>
<path d="M2704 4414 c-13 -30 -13 -38 -2 -45 22 -14 36 -10 57 17 31 40 28 64
-10 64 -25 0 -32 -6 -45 -36z"/>
<path d="M3990 4423 c0 -11 5 -24 12 -31 7 -7 20 -12 31 -12 14 0 18 6 15 28
-2 21 -9 28 -30 30 -22 3 -28 -1 -28 -15z"/>
<path d="M4420 4385 c-22 -42 9 -71 49 -46 17 11 6 48 -18 61 -14 7 -21 4 -31
-15z"/>
<path d="M2863 4335 c-13 -9 -24 -31 -28 -56 -8 -46 -9 -45 28 -54 23 -6 27
-4 27 14 0 12 7 36 16 52 26 51 2 76 -43 44z"/>
<path d="M3046 4312 c-10 -16 7 -52 24 -52 23 0 44 26 36 45 -6 16 -51 21 -60
7z"/>
<path d="M2726 4294 c-13 -33 -6 -44 24 -44 22 0 30 5 30 18 0 36 -42 57 -54
26z"/>
<path d="M4263 4303 c-20 -7 -15 -41 7 -53 27 -15 40 -5 40 31 0 29 -14 36
-47 22z"/>
<path d="M4022 4288 c-19 -19 -15 -58 7 -58 24 0 44 24 39 47 -4 22 -29 28
-46 11z"/>
<path d="M2532 4268 c-7 -7 -12 -20 -12 -30 0 -13 8 -18 30 -18 25 0 30 4 30
24 0 13 -7 27 -16 30 -20 8 -18 8 -32 -6z"/>
<path d="M3554 4219 c-9 -16 20 -41 39 -33 21 8 22 30 1 38 -23 9 -32 7 -40
-5z"/>
<path d="M3721 4221 c-18 -12 -5 -48 20 -56 23 -8 50 20 46 45 -3 17 -45 25
-66 11z"/>
<path d="M3972 4218 c-6 -6 -12 -20 -12 -30 0 -13 8 -18 31 -18 27 0 30 3 27
27 -3 30 -26 41 -46 21z"/>
<path d="M3352 4204 c-18 -20 -8 -44 17 -44 25 0 34 14 26 40 -7 24 -25 25
-43 4z"/>
<path d="M2614 4175 c-9 -49 0 -67 33 -63 38 4 44 47 12 77 -31 29 -37 27 -45
-14z"/>
<path d="M2932 4138 c-23 -23 -14 -38 24 -38 31 0 35 3 32 23 -3 25 -36 35
-56 15z"/>
<path d="M3978 4873 c-10 -2 -18 -8 -18 -13 0 -22 14 -40 30 -40 23 0 44 26
36 45 -5 15 -16 17 -48 8z"/>
<path d="M3747 4822 c-22 -24 -21 -34 3 -50 17 -10 23 -10 36 3 19 18 15 59
-7 63 -8 1 -23 -6 -32 -16z"/>
<path d="M3768 4689 c-21 -12 -22 -18 -4 -42 19 -25 56 -6 56 28 0 27 -21 33
-52 14z"/>
<path d="M8220 4975 c0 -21 30 -31 41 -14 14 23 11 29 -16 29 -16 0 -25 -6
-25 -15z"/>
<path d="M8444 4965 c-8 -32 11 -48 39 -34 25 14 19 53 -10 57 -17 3 -24 -3
-29 -23z"/>
<path d="M8750 4940 c-8 -5 -28 -10 -43 -10 -24 0 -28 -4 -25 -22 3 -24 10
-25 76 -12 26 5 32 11 30 27 -4 24 -17 30 -38 17z"/>
<path d="M9110 4866 c-18 -22 -5 -48 22 -44 17 2 23 10 23 28 0 29 -26 38 -45
16z"/>
<path d="M8920 4810 c0 -28 3 -30 35 -30 32 0 35 2 35 30 0 28 -3 30 -35 30
-32 0 -35 -2 -35 -30z"/>
<path d="M8793 4774 c-9 -24 10 -48 39 -52 32 -4 42 18 22 47 -18 25 -52 28
-61 5z"/>
<path d="M9140 4765 c0 -27 18 -33 38 -13 20 20 14 38 -13 38 -20 0 -25 -5
-25 -25z"/>
<path d="M9170 4658 c0 -20 21 -38 43 -38 32 0 18 44 -15 48 -19 2 -28 -1 -28
-10z"/>
<path d="M7956 4864 c-3 -9 -6 -19 -6 -24 0 -13 154 -112 371 -239 190 -111
204 -122 209 -152 6 -41 33 -51 83 -32 36 15 39 14 115 -25 42 -22 151 -74
242 -115 234 -106 318 -156 402 -235 33 -31 39 -34 54 -21 41 34 58 135 28
160 -14 11 -18 10 -30 -6 -8 -10 -14 -22 -14 -27 0 -17 -30 -7 -114 38 -81 43
-86 47 -72 63 25 27 20 31 -41 31 -74 0 -123 15 -293 91 -135 61 -138 63 -127
86 8 19 7 27 -6 41 -16 15 -20 15 -62 0 -42 -16 -45 -16 -68 2 -13 10 -71 41
-128 68 -109 51 -155 90 -166 142 -5 26 -8 27 -43 23 -56 -8 -80 1 -171 63
-69 47 -136 84 -153 84 -2 0 -7 -7 -10 -16z"/>
<path d="M9511 4796 c-10 -12 -8 -17 9 -26 24 -13 50 1 50 26 0 18 -44 18 -59
0z"/>
<path d="M9652 4788 c4 -30 43 -37 51 -9 6 25 0 31 -30 31 -20 0 -24 -5 -21
-22z"/>
<path d="M9890 4725 c-18 -21 -5 -47 22 -43 31 4 40 58 10 58 -11 0 -25 -7
-32 -15z"/>
<path d="M10055 4720 c19 -21 35 -18 35 6 0 9 -10 14 -27 14 -25 0 -26 -1 -8
-20z"/>
<path d="M9980 4640 c0 -49 1 -50 30 -50 30 0 31 1 25 38 -10 57 -13 62 -35
62 -17 0 -20 -6 -20 -50z"/>
<path d="M9750 4667 c0 -19 21 -37 42 -37 13 0 18 8 18 25 0 21 -5 25 -30 25
-18 0 -30 -5 -30 -13z"/>
<path d="M10106 4581 c-9 -13 3 -39 20 -45 12 -5 34 27 34 50 0 8 -49 4 -54
-5z"/>
<path d="M10500 4530 c-18 -11 -3 -43 24 -48 12 -3 16 4 16 27 0 32 -13 39
-40 21z"/>
<path d="M8910 4503 c0 -23 5 -33 15 -33 19 0 19 21 0 46 -14 18 -14 17 -15
-13z"/>
<path d="M10270 4518 c0 -7 5 -20 10 -28 11 -18 43 -3 48 24 3 12 -4 16 -27
16 -18 0 -31 -5 -31 -12z"/>
<path d="M10575 4468 c-14 -21 -14 -24 2 -35 27 -21 52 -15 59 11 3 14 3 30
-1 35 -11 18 -43 12 -60 -11z"/>
<path d="M9993 4414 c-26 -11 -14 -41 18 -48 58 -11 88 -7 99 14 6 11 9 20 8
21 -38 10 -113 18 -125 13z"/>
<path d="M10437 4414 c-4 -4 -7 -18 -7 -30 0 -27 38 -44 51 -23 12 18 11 49 0
49 -5 0 -16 2 -23 5 -8 3 -17 2 -21 -1z"/>
<path d="M9613 4363 c-24 -9 -13 -41 19 -61 24 -15 36 -18 45 -10 19 15 16 32
-10 56 -24 22 -32 25 -54 15z"/>
<path d="M8763 4334 c-6 -17 14 -44 33 -44 8 0 14 10 14 24 0 27 -38 44 -47
20z"/>
<path d="M8617 4273 c-4 -3 -7 -17 -7 -30 0 -16 6 -23 20 -23 18 0 40 26 40
49 0 12 -43 15 -53 4z"/>
<path d="M10380 4261 c0 -19 18 -31 46 -31 8 0 14 10 14 25 0 21 -5 25 -30 25
-23 0 -30 -5 -30 -19z"/>
<path d="M10211 4188 c-5 -13 -5 -30 1 -41 8 -17 10 -17 33 0 20 16 22 21 11
37 -19 29 -35 31 -45 4z"/>
<path d="M8747 4146 c-10 -24 16 -48 48 -44 24 2 29 7 27 23 -2 11 -9 23 -15
27 -20 13 -55 9 -60 -6z"/>
<path d="M9843 4129 c-27 -10 -28 -18 -9 -44 18 -24 46 -13 46 19 0 31 -8 36
-37 25z"/>
<path d="M8953 4034 c-8 -20 8 -48 31 -52 24 -5 21 45 -4 58 -16 9 -22 8 -27
-6z"/>
<path d="M9212 4023 c2 -11 14 -19 31 -21 23 -3 28 0 25 15 -2 11 -14 19 -31
21 -23 3 -28 0 -25 -15z"/>
<path d="M5797 2569 c-29 -8 -56 -34 -57 -54 0 -16 136 -66 210 -77 66 -10
139 3 146 27 4 13 -174 93 -229 104 -23 4 -55 4 -70 0z"/>
<path d="M5700 1982 c0 -27 51 -80 101 -105 75 -38 194 -41 282 -7 92 35 67
72 -58 85 -38 4 -80 11 -95 17 -34 13 -230 22 -230 10z"/>
<path d="M5233 1916 c-28 -24 -28 -26 -25 -121 1 -54 7 -118 13 -144 11 -51
98 -232 130 -271 19 -24 20 -24 9 -2 -6 13 -9 31 -6 39 5 11 17 -1 44 -43 71
-110 135 -149 230 -141 48 4 71 1 92 -11 28 -16 29 -16 53 10 15 16 41 29 63
33 81 14 114 26 125 46 15 29 5 46 -31 54 -28 6 -31 10 -26 34 20 88 20 88
-13 99 -28 10 -31 14 -21 32 6 11 17 55 25 98 7 42 16 85 20 94 11 28 -27 38
-142 38 -124 0 -158 12 -135 49 17 29 16 31 -18 31 -16 0 -91 23 -165 50 -74
28 -148 50 -164 50 -17 0 -42 -10 -58 -24z"/>
<path d="M7450 1273 c-25 -8 -67 -30 -95 -48 -50 -32 -51 -33 -210 -39 -88 -3
-275 -14 -415 -25 -140 -11 -308 -23 -372 -27 l-118 -7 0 -26 c0 -37 26 -70
69 -89 l36 -16 -40 -6 c-36 -4 -41 -9 -49 -41 -14 -58 10 -115 55 -131 11 -4
8 -12 -10 -32 -14 -14 -29 -26 -35 -26 -25 0 -286 296 -286 324 0 3 24 3 53 0
29 -3 64 -1 80 5 25 10 28 15 25 48 -4 48 -12 51 -151 52 -76 1 -118 -4 -144
-14 -33 -14 -40 -14 -79 1 -41 16 -154 17 -169 2 -8 -7 17 -95 38 -134 25 -48
138 -157 212 -205 39 -25 107 -69 153 -99 45 -29 104 -76 130 -105 26 -29 60
-55 77 -59 15 -4 72 -27 124 -51 122 -55 155 -60 166 -25 7 22 44 27 63 8 22
-22 143 28 279 116 91 58 157 91 225 111 60 17 101 50 292 234 130 126 200
242 181 301 -8 24 -25 24 -85 3z"/>
</g>
</svg>
